<svg xmlns="http://www.w3.org/2000/svg" version="1.1" id="svg" viewBox="890.215 226.987 1031.817 1035.264" style="max-height:500px" width="1031.817" height="1035.264"><path fill-rule="evenodd" d="M1402.323 274.038c-9.784 1.747-26.964 9.418-35.935 16.045-11.366 8.396-22.659 25.485-25.885 39.169-4.701 19.938 1.024 43.623 13.495 55.825 13.782 13.486 33.399 17.825 49.461 10.94 4.884-2.093 12.541-8.539 12.541-10.557 0-1.919-4.937-7.46-6.648-7.46-.808 0-3.13 1.332-5.161 2.96-7.272 5.833-16.484 7.402-27.004 4.602-7.451-1.983-11.597-5.055-18.305-13.562-5.728-7.265-8.143-15.569-7.998-27.5.192-15.794 4.895-26.417 17.056-38.521 4.708-4.686 9.91-9.167 11.56-9.957 1.65-.789 3.675-1.938 4.5-2.553 4.144-3.086 17.24-7.367 26.06-8.518 8.199-1.069 10.906-1.018 19 .358 5.192.883 11.8 2.75 14.685 4.148 2.885 1.399 5.496 2.543 5.803 2.543 1.787 0 17.76 11.623 21.548 15.68 26.737 28.631 33.671 71.928 18.228 113.82-8.048 21.829-14.801 33.948-30.65 55-8.855 11.762-19.152 23.084-36.885 40.556-16.495 16.252-17.988 18.602-14.218 22.373 3.606 3.605 6.493 1.829 22.211-13.655 32.781-32.296 50.773-55.443 63.175-81.274 11.337-23.616 16.135-43.338 16.169-66.47.05-34.688-8.34-57.462-28.868-78.356-8.979-9.14-12.741-11.898-23.807-17.453-14.266-7.162-19.252-8.415-34.951-8.781-7.7-.179-16.33.09-19.177.598m144.915 26.01c-5.927 3.022-11.873 10.118-13.921 16.614-1.487 4.719-1.542 6.187-.43 11.568 2.706 13.102 12.95 26.889 29.113 39.181 6.008 4.569 15.291 10.589 16.328 10.589 1.357 0 14.494-9.432 22.454-16.121 14.009-11.774 23.695-27.198 23.428-37.312-.275-10.474-4.932-18.61-13.523-23.628-4.69-2.74-5.858-2.996-12.187-2.67-6.956.358-11.256 1.773-17 5.595l-3 1.996-5.779-3.597c-5.061-3.15-6.738-3.646-13.5-3.992-6.458-.331-8.418-.04-11.983 1.777m19.783 9.099c2.487 1.509 5.538 4.118 6.78 5.798 2.941 3.978 5.481 3.862 8.73-.396 3.155-4.137 11.548-8.549 16.264-8.549 8.578 0 15.4 7.447 15.997 17.46.33 5.558.054 6.534-3.466 12.234-2.104 3.407-6.301 8.875-9.326 12.152-7.643 8.278-22.88 20.321-24.536 19.392-2.937-1.647-14.311-11.179-21.558-18.067-10.011-9.514-13.906-16.547-13.906-25.111 0-6.325 1.395-10.297 4.65-13.243 6.059-5.484 13.13-6.063 20.371-1.67m-288.803 3.516c-6.962 3.432-10.273 12.196-7.809 20.673 2.384 8.198 8.352 12.664 16.927 12.664 4.336 0 6.134-.558 9.381-2.91 4.323-3.132 8.283-10.034 8.283-14.438 0-5.933-4.668-13.369-10.2-16.247-3.616-1.881-12.522-1.743-16.582.258m14.094 8.598c1.998 1.598 2.975 3.46 3.373 6.429.492 3.667.216 4.497-2.259 6.791-2.329 2.158-3.611 2.561-7.372 2.316-4.07-.265-4.757-.675-6.46-3.857-2.316-4.326-1.637-8.069 2.092-11.525 3.256-3.017 6.982-3.071 10.626-.154m117.829 9.069c-1.115 1.344-1.59 3.823-1.299 6.783.14 1.427 10.312 6.887 12.83 6.887 1.749 0 8.179 7.515 11.236 13.131 8.597 15.791 7.778 40.677-2.184 66.369-11.564 29.824-22.899 46.57-56.474 83.426-6.53 7.168-8.25 9.689-8.25 12.09 0 2.336.59 3.258 2.565 4.009 4.138 1.573 4.971 1.242 10.758-4.275 27.189-25.921 52.343-62.996 63.943-94.25 1.429-3.85 3.806-12.85 5.282-20 2.298-11.13 2.606-14.582 2.145-24-.616-12.557-3.037-22.154-7.799-30.906-4.291-7.886-9.934-13.183-18.366-17.24-7.322-3.523-12.535-4.256-14.387-2.024m-308.607 3.443c-3.413 1.875-5.914 4.264-8 7.645l-3.034 4.919-.311 25.131c-.292 23.585-.18 25.48 1.81 30.799 2.772 7.41 9.087 13.157 16.112 14.663 2.743.589 14.769 1.07 26.724 1.07h21.737l13.964 12.532c18.881 16.946 20.676 16.643 20.346-3.436l-.154-9.404 5.109-1.906c6.433-2.399 11.738-8.363 13.577-15.259 1.929-7.233 1.621-48.289-.409-54.527-1.863-5.724-8.228-12.159-13.621-13.77-2.981-.891-15.801-1.224-46.5-1.207l-42.384.024zm93.404 7.099c1.341.963 3.366 2.993 4.5 4.511 1.936 2.59 2.08 4.317 2.36 28.242.286 24.365.207 25.63-1.787 28.858-2.371 3.835-9.113 7.517-13.765 7.517-2.919 0-3.161.279-3.692 4.25-.312 2.337-.677 6.552-.811 9.365l-.243 5.115-10.876-9.365-10.877-9.365h-24.161c-23.071 0-24.363-.102-28.616-2.25-2.45-1.238-5.47-3.779-6.712-5.648-2.189-3.295-2.258-4.138-2.258-27.79 0-22.082.182-24.743 1.917-28.102 1.951-3.776 4.722-6.019 8.781-7.105 1.243-.333 20.607-.465 43.031-.295 36.945.282 41 .475 43.209 2.062m519.064 13.124c-.588 1.098-.978 6.088-.868 11.088.218 9.853-.276 10.872-5.279 10.901-7.855.045-23.67 7.563-31.115 14.79-8.006 7.772-14.384 22.076-15.643 35.079-1.343 13.883 1.156 21.687 6.098 19.042 1.055-.565 2.146-1.785 2.426-2.711 2.191-7.27 11.205-18.266 17.879-21.811 5.654-3.004 16.851-6.374 21.175-6.374H1713v10.393c0 8.942.244 10.499 1.75 11.154 3.618 1.572 7.008-.005 14.25-6.63 1.375-1.258 7.675-7.047 14-12.865 6.325-5.817 13.638-12.289 16.251-14.382 5.424-4.344 7.116-6.939 6.268-9.611-.326-1.026-4.288-4.699-8.806-8.162-7.837-6.007-22.091-18.105-24.212-20.55-.551-.634-3.659-3.447-6.907-6.25-6.324-5.459-9.828-6.396-11.592-3.101m19.962 22.602c6.263 5.829 13.07 11.661 15.128 12.96 5.616 3.545 5.692 4.313.828 8.332-6.866 5.672-25.287 22.2-26.67 23.929-1.042 1.303-1.278.658-1.421-3.878-.094-2.992-.271-6.116-.394-6.941a47 47 0 0 1-.329-3.125c-.364-5.568-30.804-.509-40.959 6.808-2.006 1.445-4.937 4.02-6.513 5.722l-2.867 3.095.663-4.5c1.095-7.425 5.083-14.735 11.37-20.84 6.784-6.589 14.151-10.535 23.81-12.752 3.79-.87 8.465-2.123 10.39-2.784l3.5-1.201.292-7.711c.161-4.242.628-7.712 1.039-7.712s5.87 4.769 12.133 10.598m-614.309-7.769c-3.858 4.263-.797 11.171 4.95 11.171 2.98 0 3.688-.468 4.836-3.198 1.49-3.544 1.123-5.441-1.559-8.052-2.333-2.27-6.134-2.234-8.227.079m25.737.688c-2.7 2.7-2.584 5.356.381 8.733 2.023 2.304 7.456 2.259 9.572-.079 2.226-2.459 2.084-5.356-.418-8.536-2.638-3.355-6.253-3.4-9.535-.118m25.782-.203c-2.58 2.747-2.67 3.826-.648 7.736 1.219 2.358 2.184 2.95 4.809 2.95 6.445 0 9.445-5.467 5.649-10.293-2.686-3.415-6.815-3.581-9.81-.393m76.584 7.308c-1.941 4.223-2.243 6.555-2.25 17.378-.007 10.701.302 13.171 2.146 17.161l2.155 4.661-7.66-.082c-8.787-.095-13.16 1.506-14.497 5.309-.731 2.077-.037 4.278 3.783 11.997 4.936 9.975 9.217 14.274 17.805 17.883 2.057.864 3.744 1.847 3.75 2.184s-2.405 1.373-5.356 2.301c-5.888 1.852-9.636 4.722-9.63 7.375.005 2.199 2.89 6.918 6.59 10.777 8.706 9.082 17.971 12.591 43.368 16.428 16.372 2.474 19.112 3.916 21.974 11.565 1.124 3.004 2.336 7.288 2.692 9.519 1.072 6.699 7.548 9.054 8.999 3.273.352-1.404-.71-7.416-2.518-14.247l-3.127-11.819 2.551-4.566a1876 1876 0 0 1 5.01-8.892c10.831-19.068 16.108-34.715 15.175-45.001-.564-6.222-3.201-12.571-5.902-14.21-2.2-1.335-11.803 1.607-14.319 4.387-2.773 3.064-3.24 2.433-2.147-2.9.778-3.801.619-6.851-.712-13.624-2.685-13.666-7.125-20.479-13.347-20.479-4.081 0-11.599 6.444-13.432 11.513l-1.197 3.311-1.852-3.744c-4.538-9.172-20.07-19.819-31.602-21.663l-4.207-.673zm14.49 8.087c11.467 8.098 13.136 9.908 18.216 19.758 4.435 8.598 5.23 9.593 7.454 9.329 2.061-.245 3.304-1.958 7.213-9.942 2.598-5.305 5.187-9.933 5.754-10.283 1.34-.828 4.178 4.64 5.58 10.754 1.33 5.796.199 20.869-2.099 27.96-1.412 4.36-1.406 5.004.065 7.25 2.67 4.075 6.851 3.359 10.429-1.785 1.625-2.337 4.796-6.028 7.046-8.201 5.172-4.996 6.49-4.017 6.408 4.757-.081 8.603-3.231 17.988-10.827 32.257-6.171 11.593-6.38 11.85-7.415 9.126-1.915-5.037-10.963-23.556-13.396-27.417-1.306-2.075-4.079-6.922-6.16-10.772-6.959-12.872-7.446-13.5-10.475-13.5-5.472 0-5.674 2.134-1.093 11.511 2.294 4.696 6.359 12.325 9.032 16.954 4.66 8.069 11.938 23.394 13.505 28.436.613 1.975.453 2.289-.903 1.769-.906-.348-4.671-1.123-8.365-1.723s-8.344-1.508-10.333-2.019c-1.989-.51-5.017-.928-6.729-.928-5.78 0-15.444-3.93-20.545-8.355l-4.883-4.236 2.856-1.872c1.953-1.279 5.822-2.121 12.234-2.662 5.158-.435 10.009-1.315 10.78-1.956 2.192-1.819 1.674-4.865-1-5.882-1.321-.503-2.676-1.356-3.01-1.897s-4.091-2.145-8.347-3.566c-4.275-1.427-9.951-4.26-12.68-6.329-4.488-3.402-11.546-13.097-11.556-15.872-.005-1.444 7.785-.744 14.204 1.278 2.59.815 6.19 1.34 8 1.165 4.605-.442 4.706-3.263.342-9.607-5.646-8.208-6.999-12.58-7.026-22.709-.022-8.3.83-14.5 1.993-14.5.263 0 2.842 1.669 5.731 3.709m350.127 14.541c-2.12 2.416-9.375 13.405-9.375 14.199 0 .264-2.538 5.108-5.64 10.765-8.106 14.781-14.536 28.023-18.348 37.786-1.825 4.675-3.666 8.894-4.091 9.376s-.833-8.518-.907-20c-.137-21.42-.796-28.204-2.999-30.858-1.696-2.044-4.346-1.914-6.36.311-1.465 1.618-1.656 5.386-1.661 32.75-.004 25.341-.365 33.538-1.998 45.421-3.393 24.693-4.332 26.179-6.156 9.736-1.265-11.404-4.422-26.742-6.737-32.736-1.488-3.85-2.189-4.545-4.854-4.808-4.146-.411-5.9 2.515-4.276 7.129 2.389 6.79 5.139 23.823 6.083 37.679 1.83 26.874.952 38.953-4.452 61.236-1.432 5.905-2.604 12.984-2.604 15.731 0 4.572.225 5.051 2.655 5.661 3.67.921 5.669-.646 6.668-5.228 2.226-10.211 7.171-26.404 9.435-30.9 7.723-15.331 31.037-41.825 46.698-53.067 3.014-2.163 5.719-4.531 6.011-5.262.917-2.295-.535-5.895-2.796-6.932-1.784-.819-3.062-.368-7.171 2.532-7.205 5.085-15.866 12.481-24.75 21.134-4.263 4.151-7.75 6.942-7.75 6.2 0-3.143 11.87-23.827 18.293-31.874 10.124-12.685 26.791-29.234 37.707-37.44 5.225-3.928 10.063-7.824 10.75-8.657 2.817-3.416.489-8.134-4.013-8.134-3.894 0-17.485 10.68-33.622 26.42-6.811 6.644-12.136 11.405-11.834 10.58 2.318-6.316 15.184-34.569 15.863-34.833.471-.184.857-1.084.858-2 .002-.917 2.304-5.717 5.116-10.667 2.813-4.95 6.653-11.925 8.534-15.5s4.351-7.971 5.487-9.769c1.939-3.066 1.966-3.422.441-5.75-2.041-3.114-5.588-3.214-8.205-.231M1067.5 463.896c-5.579 2.583-9.186 6.78-11.511 13.395-1.757 4.999-1.989 8.264-1.989 28.003 0 24.424.901 30.172 5.729 36.564 1.395 1.846 4.84 4.429 7.654 5.74l5.117 2.382 41 .005c26.695.002 42.379-.379 44.951-1.093 6.299-1.749 9.956-5.248 13.482-12.898l3.221-6.987-.372-24.754c-.319-21.157-.634-25.334-2.173-28.753-2.427-5.39-5.203-8.237-10.826-11.099l-4.717-2.401-42.783.022c-39.509.02-43.089.164-46.783 1.874m91 7.972c1.65.947 3.994 3.727 5.209 6.177 2.083 4.202 2.211 5.778 2.25 27.737.044 24.93-.393 27.67-5.08 31.829-4.645 4.123-7.53 4.389-47.568 4.389-36.503 0-38.585-.099-42.337-2.013-2.582-1.317-4.665-3.422-6.023-6.084-1.964-3.849-2.06-5.403-1.764-28.736.348-27.392.764-29.337 7.112-33.207 3.043-1.856 5.23-1.949 44.201-1.883 36.886.062 41.301.242 44 1.791m571.5 2.803c-4.949.79-11.59 3.682-16.314 7.105-4.193 3.038-25.148 26.849-61.711 70.122a4690 4690 0 0 1-17.854 21c-9.492 11.065-13.65 15.99-20.771 24.602-3.183 3.85-10.081 11.95-15.328 18-10.142 11.694-19.658 23.373-24.425 29.978-1.597 2.212-4.522 5.597-6.5 7.522s-9.897 11.074-17.597 20.331-16.025 19.226-18.5 22.153a14041 14041 0 0 0-19.483 23.169c-33.233 39.586-42.374 49.372-55.106 58.991-3.899 2.946-7.349 5.356-7.667 5.356s-3.878 1.951-7.911 4.335c-6.443 3.808-21.586 9.574-28.833 10.979-5.138.995-27.456 7.804-33.859 10.328-7.82 3.084-10.141 4.88-10.141 7.844 0 4.718 7.439 5.973 15.73 2.653 2.877-1.152 12.102-3.94 20.5-6.196 23.467-6.304 30.572-8.724 39.546-13.472 26.649-14.099 36.07-23.332 89.178-87.392 8.801-10.617 48.516-58.101 61.546-73.586 26.728-31.766 32.441-38.482 42.511-49.986 5.78-6.604 12.305-14.25 14.5-16.991 2.194-2.742 4.889-5.927 5.989-7.079s8.75-10.117 17-19.921l21-24.959c3.3-3.922 7.125-8.671 8.5-10.552 4.579-6.263 15.601-16.76 20.079-19.12 3.543-1.868 6.009-2.336 12.421-2.358 7.174-.024 8.498.283 12.829 2.973 6.824 4.24 10.121 10.725 9.914 19.5-.307 12.958-3.543 18.068-25.35 40.031-7.916 7.972-29.232 29.789-47.37 48.482-36.341 37.455-61.466 63.202-98.549 100.987-35.214 35.88-65.39 67.245-76.97 80-24.139 26.59-32.93 45.298-39.471 84-4.138 24.482-7.232 36.196-13.195 49.964-8.264 19.077-16.818 31.862-29.51 44.104-17.345 16.729-29.658 25.939-43.328 32.407-20.416 9.66-47.677 13.56-64.068 9.167-21.493-5.761-33.35-17.901-38.03-38.937-2.168-9.746-1.483-27.536 1.488-38.642 3.992-14.919 13.992-34.78 24.306-48.27 3.373-4.412 3.877-5.683 3.299-8.315-.985-4.485-4.405-5.794-8.679-3.32-7.135 4.129-22.445 30.754-28.157 48.968-10.221 32.594-5.91 63.808 11.434 82.786 9.097 9.953 19.065 15.168 34.745 18.179 19.86 3.813 48.944-.843 69.109-11.065 23.308-11.814 45.617-30.793 61.744-52.526 7.848-10.576 19.553-33.717 22.762-45 2.332-8.2 7.13-32.49 9.48-48 2.888-19.052 15.23-45.603 28.355-61 3.418-4.009 17.773-18.995 41.669-43.5 9.117-9.35 33.436-34.325 54.041-55.5s47.87-49.075 60.589-62 24.428-24.908 26.019-26.629c1.592-1.721 16.223-16.796 32.515-33.5 34.732-35.612 33.819-34.572 38.634-44.021 3.6-7.065 3.744-7.738 3.707-17.35-.039-10.543-1.648-16.071-7.127-24.5-5.675-8.73-20.81-14.328-33.335-12.329m-631.893 8.241c-1.126.714-1.367 4.967-1.258 22.235.118 18.843.333 21.5 1.833 22.603 1.986 1.46 5.507 1.639 6.868.35.522-.495 5.675-3.466 11.45-6.602 14.723-7.996 19.833-11.579 20.908-14.664 1.171-3.359.962-3.546-14.323-12.859-6.554-3.993-13.479-8.321-15.39-9.617-3.568-2.421-7.628-3.003-10.088-1.446m721.317 11.339c-2.649 2.427-3.691 4.324-4.116 7.489-.508 3.785-1.148 4.623-5.994 7.84-6.123 4.064-11.509 10.859-13.373 16.871-.691 2.227-1.358 9.719-1.483 16.649-.245 13.64-.574 14.756-6.454 21.9-4.598 5.586-5.653 9.36-3.527 12.606 1.505 2.296 2.041 2.394 13.077 2.394 10.08 0 11.579.217 12.071 1.75 1.867 5.81 3.067 7.676 6.284 9.774 9.737 6.349 22.955 2.548 25.955-7.465l1.216-4.059h11.76c7.813 0 12.163-.403 12.96-1.2 2.412-2.412 1.326-7.186-2.917-12.827-2.264-3.01-4.556-6.598-5.093-7.973s-1.07-8.35-1.185-15.5c-.19-11.819-.452-13.5-2.882-18.5-3.429-7.055-5.031-8.965-11.657-13.897-2.989-2.224-5.575-4.97-5.748-6.101-.694-4.546-3.373-9.065-6.508-10.976-4.791-2.921-8.234-2.581-12.386 1.225m-702.924 5.248c9.864 5.396 9.886 5.42 7.24 7.434-3.989 3.035-17.473 10.001-18.116 9.358-.343-.343-.624-5.776-.624-12.073V492.77l2.25 1.449c1.237.797 5.4 3.173 9.25 5.28m713.32 2.251c.286 2.017-.102 2.25-3.75 2.25-2.673 0-4.07-.446-4.07-1.3 0-4.083 7.249-4.964 7.82-.95m.632 10.173c.314.508 1.863 1.207 3.442 1.554 4.298.944 10.896 7.121 13.782 12.902 2.242 4.492 2.599 6.638 2.905 17.474.401 14.16.512 14.657 5.013 22.397l3.343 5.75h-64.777l3.647-6.75c3.583-6.631 3.657-6.997 4.193-20.75.617-15.846 1.733-19.302 8.291-25.667 5.643-5.476 18.355-9.833 20.161-6.91m-606.828 2.654c-15.478 4.943-24.983 18.194-25.05 34.923-.027 6.705.416 8.951 2.739 13.872 3.96 8.389 7.141 12.153 13.555 16.036 16.078 9.733 33.135 8.085 44.893-4.338 14.104-14.901 14.198-35.717.229-50.487-9.237-9.767-24.212-13.888-36.366-10.006m236.876 7.027c-2.059.514-4.45 1.493-10.468 4.286-5.503 2.554-12.47 10.147-15.893 17.319-3.758 7.873-4.255 14.916-1.614 22.865 4.743 14.282 25.039 23.962 26.727 12.748.275-1.827.219-3.462-.126-3.634l-6.066-3c-9.609-4.748-12.591-12.02-8.937-21.787 2.868-7.667 7.744-12.833 14.492-15.358 10.498-3.928 19.338-1.909 28.286 6.462 6.452 6.034 9.036 12.166 9.353 22.189.237 7.523.072 8.161-4.574 17.622-8.739 17.797-20.925 27.893-61.18 50.685-23.941 13.555-36.89 22.176-49.559 32.995-24.817 21.194-39.898 46.884-47.003 80.065-1.86 8.691-2.128 12.348-1.69 23.131.285 7.044.154 12.808-.292 12.808-2.101 0-8.738-21.05-10.965-34.778-3.176-19.569 6.265-49.892 21.998-70.655 3.306-4.363 6.011-8.78 6.011-9.816 0-3.763-1.916-5.751-5.544-5.751-3.204 0-3.97.671-9.845 8.616-6.887 9.313-14.31 23.298-17.455 32.884-5.52 16.821-7.541 37.374-5.134 52.204 2.363 14.561 12.962 39.795 24.888 59.255 11.867 19.363 18.008 33.473 22.722 52.206 2.734 10.863 3.991 26.974 2.524 32.335-.769 2.809-.997 2.458-3.571-5.5-6.502-20.1-13.628-32.458-28.546-49.5-6.738-7.698-26.291-33.103-32.763-42.57-12.051-17.628-20.276-45.014-20.276-67.514 0-11.456 2.927-31.006 6.119-40.866 3.619-11.178 13.438-31.424 18.34-37.815 5.247-6.839 6.719-10.743 5.203-13.798-1.691-3.41-6.142-3.774-9.349-.763-2.508 2.354-9.038 12.752-15.736 25.056-4.514 8.292-10.764 24.751-13.566 35.728-3.415 13.375-4.579 38.096-2.426 51.542 2.984 18.645 12.654 42.018 25.443 61.5 6.622 10.087 8.202 12.105 25.465 32.511 15.793 18.668 19.899 24.318 24.86 34.206 7.186 14.323 9.942 24.719 11.071 41.757.681 10.271 1.742 12.088 6.455 11.053 2.709-.595 3.616-1.77 7.211-9.335 4.948-10.416 6.719-18.083 7.56-32.731 1.019-17.759-3.631-37.279-14.568-61.154-9.844-21.49-13.801-36.341-14.782-55.484-.853-16.66 2.881-37.252 9.489-52.323 13.791-31.454 35.146-52.079 80.211-77.47 23.839-13.431 38.787-22.625 44.5-27.371 2.75-2.284 5.826-4.83 6.835-5.656 3.339-2.735 14.377-16.425 17.339-21.506 4.373-7.499 6.328-14.735 6.311-23.362-.029-15.018-3.932-25.07-13.044-33.594-7.148-6.685-16.037-10.596-25.147-11.062-4.012-.206-8.194-.149-9.294.125m-213.955 4.424c15.739 9.727 17.934 31.175 4.439 43.368-5.762 5.205-9.145 6.604-15.968 6.604-7.653 0-14.184-3.112-19.713-9.393-4.311-4.898-5.783-8.848-6.808-18.27-.795-7.297.472-10.624 6.525-17.14 5.98-6.437 10.85-8.356 20.08-7.911 5.817.28 8.503.924 11.445 2.742m-18.23 4.074c-4.2 1.215-8.789 5.92-11.292 11.579-2.483 5.612-2.553 7.971-.273 9.166 3.645 1.91 6.205-.466 8.57-7.954.279-.884 2.234-2.497 4.344-3.585 2.11-1.087 4.459-3.251 5.22-4.808 1.239-2.535 1.193-2.971-.441-4.166-2.047-1.496-1.792-1.487-6.128-.232m114.95 10.44c-11.958 3.22-20.633 9.163-28.121 19.264-21.845 29.467-6.74 71.228 29.228 80.805 17.374 4.626 38.65-2.385 51.128-16.848 11.325-13.127 15.043-33.855 9.099-50.732-1.446-4.107-3.814-9.177-5.262-11.266-4.456-6.431-13.471-14.683-18.781-17.194-11.465-5.419-26.213-7.013-37.291-4.029m22.648 7.999c8.333 1.964 14.756 5.526 20.381 11.302 13.24 13.595 16.271 32.274 8.005 49.317l-3.727 7.684-2.2-3.872c-3.137-5.524-9.257-11.864-13.587-14.078l-3.715-1.899 2.965-5.402c9.731-17.731-7.681-37.977-25.535-29.693-7.51 3.485-13.541 12.423-13.478 19.976.025 3 3.317 10.736 5.679 13.346 1.481 1.637 1.33 1.867-2.187 3.336-4.368 1.826-12.436 9.732-14.7 14.406l-1.554 3.21-2.213-3.108c-4.357-6.119-6.442-13.866-6.408-23.812.029-8.812.227-9.643 4.207-17.675 4.788-9.662 10.032-14.918 19.562-19.606 10.037-4.936 18.036-5.9 28.505-3.432m-3.168 22.028c3.017 1.976 6.246 7.271 6.251 10.247.005 2.915-1.523 5.915-4.805 9.434-2.128 2.281-3.405 2.75-7.496 2.75-4.394 0-5.353-.422-8.813-3.882-3.18-3.181-3.882-4.587-3.882-7.778 0-5.2 3.392-9.95 8.966-12.557 2.081-.973 6.917-.09 9.779 1.786m471.552 11.863c-2.014 2.724-5.395 4.568-8.379 4.568-2.495 0-6.684-2.695-7.994-5.142-.937-1.751-.441-1.858 8.588-1.858h9.581zm-464.089 23.948c5.795 3.399 10.196 8.284 11.776 13.073 1.464 4.433.609 5.727-5.921 8.967-14.152 7.02-30.996 5.975-43.806-2.719-3.746-2.542-4.067-4.454-1.257-7.471 1.1-1.18 2-2.592 2-3.137 0-1.952 4.77-6.079 10.583-9.156 5.499-2.91 6.483-3.103 13.917-2.725 6.47.329 8.9.934 12.708 3.168M1074 605.933c-18.822 1.255-23.512 6.014-22.845 23.177.19 4.89.12 8.901-.155 8.913-20.971.918-27.136 2.179-31.376 6.419-3.935 3.936-5.624 9.28-5.624 17.799 0 6.49-.009 6.511-3.125 7.134-1.719.344-6.556.629-10.75.635-12.558.016-20.729 5.075-24.547 15.201-1.476 3.913-1.594 24.56-1.348 235.789l.27 231.5 2.314 4.698c2.856 5.799 8.253 11.156 14.186 14.082l4.5 2.22 172.882.247 172.881.247 5.578 8.153c10.395 15.194 25.187 23.989 46.159 27.445 20.231 3.333 39.366.187 56.357-9.267 9.175-5.106 13.201-8.709 20.434-18.288l6.085-8.06 170.384.017c185.327.019 175.354.318 183.757-5.506 2.102-1.457 5.028-4.388 6.501-6.514 5.861-8.457 5.489 7.997 5.486-242.602-.002-230.445-.003-230.582-2.057-235.226-4.62-10.447-11.109-14.017-26.697-14.687l-10.361-.445-.276-7.257c-.508-13.376-6.144-21.013-16.745-22.689-2.929-.463-6.46-.679-7.847-.48-1.386.198-4.599.113-7.139-.189l-4.617-.55-.487-9.296c-.56-10.719-3.257-17.058-8.283-19.466-3.922-1.88-14.253-2.845-28.937-2.703l-11.943.116-1.815 3.105c-1.768 3.026-1.764 3.172.184 5.647 1.966 2.5 2.267 2.549 18.258 2.972 8.942.237 17.001.765 17.909 1.173.909.408 1.915 1.723 2.237 2.922.321 1.2.591 102.433.598 224.962.013 202.745-.129 222.837-1.576 223.392-.875.336-7.738.026-15.25-.689-15.047-1.431-72.578-1.872-86.16-.66l-19.5 1.738c-43.049 3.836-93.596 15.932-131.855 31.553-27.238 11.122-61.635 31.021-77.76 44.985-3.43 2.97-6.598 5.4-7.04 5.4s-.925-29.961-1.074-66.581c-.258-63.391-.359-66.645-2.116-67.93-1.568-1.146-2.353-1.096-5.226.331-2.963 1.473-3.391 2.174-3.474 5.68-.052 2.2-.094 32.237-.093 66.75s-.215 62.75-.48 62.75-4.797-3.649-10.07-8.108c-14.327-12.115-28.57-21.078-50.812-31.978-30.622-15.005-55.396-23.683-92.216-32.303-32.367-7.576-60.66-11.125-102.066-12.802-23.428-.949-33.125-.926-48.5.111-36.756 2.481-35.716 2.453-35.74.955-.45-28.793-.047-446.364.434-448.521l.701-3.146 16.694-.743c16.31-.725 73.746-.036 81.693.98 2.2.281 6.475.765 9.5 1.074 26.612 2.72 62.652 9.236 83.238 15.048 17.613 4.974 21.762 4.565 21.762-2.145 0-4.016-1.083-4.877-8.569-6.813-3.338-.863-8.022-2.259-10.41-3.102-4.235-1.494-13.215-3.514-33.521-7.541-5.5-1.09-12.27-2.44-15.044-3-2.774-.559-15.824-2.161-29-3.56-19.998-2.123-29.903-2.595-59.956-2.858-19.8-.173-40.725 0-46.5.385m477.5 15.718c-36.237 9.613-75.549 25.993-101.5 42.291-15.332 9.629-35.964 25.491-40.909 31.449-1.224 1.474-1.836 1.185-6.247-2.94-4.042-3.781-5.45-4.52-8.117-4.263-2.996.29-3.248.602-3.525 4.368-.28 3.806.044 4.358 5.25 8.946l5.548 4.891v72.258l2.314 2.175c3.052 2.867 5.093 2.743 7.613-.461 2.005-2.548 2.073-3.751 2.073-36.696v-34.061l2.634-3.802c7.234-10.437 37.888-31.933 64.366-45.134 17.812-8.88 44.23-19.151 67-26.048 11.349-3.437 18.689-5.153 20.353-4.758 1.464.348 4.647-4.061 4.647-6.437 0-6.583-2.581-6.796-21.5-1.778m229.644 29.313c2.609.026 4.527.86 6.75 2.937l3.106 2.901V885.71c0 190.736-.225 229.216-1.352 230.756-1.509 2.064-4.721 1.961-26.148-.841-20.746-2.712-65.913-5.011-82-4.173-5.5.287-15.4.768-22 1.069-18.455.843-46.457 3.49-64 6.05-47.051 6.866-99.69 21.492-141.5 39.317-8.251 3.518-10.486 4.053-17 4.068-4.125.009-8.478-.246-9.674-.566-1.988-.534-1.732-.978 3-5.187 12.25-10.897 50.715-33.183 73.674-42.685 27.334-11.313 74.472-23.589 111.5-29.037 27.969-4.115 87.782-5.986 111-3.471 4.95.537 13.58 1.007 19.179 1.045 11.271.078 15.01-1.12 18.062-5.787 2.096-3.206 1.976 10.553 2.143-247.136l.116-179.368 5.75.582c3.162.32 7.39.598 9.394.618m-729.901 211.463.257 211.426 2.065 2.824c1.135 1.553 3.76 3.666 5.833 4.695 3.433 1.706 4.544 1.767 12.436.687 13.033-1.784 71.698-2.529 90.666-1.152 41.492 3.014 79.914 10.053 120.5 22.078 22.516 6.672 55.395 21.551 77.783 35.202 10.214 6.228 30.917 21.394 31.142 22.813.044.275-5.434.266-12.173-.02-8.638-.367-13.284-1.024-15.752-2.226-15.103-7.36-35.013-14.529-58-20.884-41.982-11.607-43.351-11.952-60.5-15.238-61.695-11.821-129.967-14.337-192-7.075-26.471 3.099-25.3 3.099-26.477.003-.706-1.857-.954-75.569-.779-231.537.25-223.415.301-228.863 2.161-230.918 1.703-1.881 3.003-2.105 12.243-2.105h10.338zm43.257-189.552c-3.236.688-4.675 4.35-2.547 6.478.792.792 9.425 1.031 29.335.81 26.135-.29 48.412.649 66.662 2.811 8.077.956 11.05.18 11.05-2.887 0-4.16-2.095-4.63-29.379-6.588-20.529-1.474-69.226-1.878-75.121-.624m564.75 2.212c-.687.722-1.25 2.068-1.25 2.991 0 3.756 2.236 4.127 24.224 4.012 11.702-.061 27.243.328 34.535.865s13.93.718 14.75.403c2.338-.897 1.874-6.082-.665-7.441-3.361-1.799-69.937-2.571-71.594-.83m-645.18 27.112c.039 11.715.173 109.501.297 217.301.242 208.525.013 199.042 4.95 204.345 5.167 5.55 9.434 6.334 24.683 4.54 25.3-2.979 28.946-3.348 40.5-4.102 25.254-1.648 86.73-.361 106 2.219 1.65.221 7.275.904 12.5 1.518 35.374 4.158 86.473 15.625 117.876 26.453 6.943 2.394 14.424 5.011 16.624 5.816 3.54 1.294-15.619 1.482-166.698 1.633l-170.699.171L996 1160c-2.551-1.301-5.222-3.857-7.06-6.756l-2.957-4.662.259-229.218c.257-228.667.263-229.224 2.29-231.939 3.428-4.591 7.549-6.133 16.948-6.34l8.52-.188zm810.032-18.912c1.869 1.258 3.96 3.457 4.647 4.885.986 2.05 1.3 50.783 1.488 230.963l.239 228.365-2.488 4.983c-1.583 3.171-3.761 5.717-5.988 7-3.467 1.998-5.097 2.019-172.499 2.278-92.949.144-169.66.008-170.469-.302-2.554-.98 32.942-13.183 50.968-17.523 62.391-15.02 104.183-20.293 161-20.314 32.906-.012 48.124.811 75 4.054 24.935 3.009 30.458 1.947 34.352-6.604l2.081-4.572.293-195.5c.161-107.525.288-205.513.283-217.75L1803 681h8.852c7.566 0 9.346.332 12.25 2.287M1104 695.973c-6.875.411-12.641.811-12.813.888s-.173 1.601 0 3.389l.313 3.25 22-.361c36.417-.597 77.811 2.632 110 8.582 4.95.915 11.025 1.69 13.5 1.721 4.164.054 4.523-.144 4.812-2.646.287-2.487-.115-2.825-5-4.206-12.476-3.526-41.656-7.818-64.812-9.533-18.565-1.375-53.774-1.936-68-1.084m551.333 2.064c-21.897.805-23.939 1.146-24.893 4.153-.881 2.776 2.945 6.211 6.003 5.389 5.456-1.467 54.295-2.589 73.413-1.685 11.196.529 20.984.721 21.75.427 1.733-.665 1.835-5.719.144-7.089-.687-.557-5.525-1.083-10.75-1.17-38.704-.644-48.713-.648-65.667-.025M1098.5 719.854l-7 .646-.313 3.25c-.21 2.178.12 3.248 1 3.245.722-.002 18.863.168 40.313.378 32.052.315 42.118.765 56.5 2.527 18.197 2.23 38.423 5.447 45.753 7.277 4.938 1.233 7.247.034 7.247-3.761 0-1.861-.766-2.54-3.75-3.323-9.722-2.551-41.037-7.308-60.015-9.116-12.906-1.229-69.889-2.032-79.735-1.123m561.5.82c-18.952.944-50.497 3.565-52.618 4.371-3.18 1.209-4.064 3.701-2.033 5.733 1.462 1.461 3.09 1.503 16.387.425 34.223-2.777 63.873-3.56 87.03-2.298 23.486 1.279 25.234 1.078 25.234-2.905 0-3.501-2.865-4.411-15.86-5.039-13.523-.653-47.43-.821-58.14-.287m-562.743 22.991c-3.804.319-5.518.953-6.246 2.315-.977 1.825-.446 4.993.846 5.046.354.015 18.418.19 40.143.39 27.477.252 43 .821 51 1.868 12.532 1.64 15 1.187 15-2.752 0-3.01-.471-3.15-17-5.071-13.163-1.529-71.876-2.788-83.743-1.796m555.243.934c-25.675 1.491-65.995 5.259-69.161 6.462-2.719 1.034-3.282 5.64-.805 6.59.843.324 9.506-.167 19.25-1.09 39.145-3.709 90.352-5.346 117.102-3.743 12.184.73 15.114-.015 15.114-3.84 0-3.998-2.912-4.328-40-4.532-19.525-.107-38.2-.039-41.5.153m-559.112 52.381c-2.466.996-3.692 4.534-2.035 5.873.636.513 18.973 1.16 41.147 1.45 50.415.661 68.855 2.401 109.719 10.351 15.343 2.985 18.996 3.413 20.25 2.372 2.159-1.792 1.902-3.739-.719-5.439-5.955-3.86-59.581-12.175-93.937-14.565-17.554-1.221-71.431-1.252-74.425-.042m551.612.608-17 1.435c-21.321 1.801-69.461 8.469-76.199 10.554-2.492.771-3.312 4.341-1.43 6.223 1.607 1.606 6.614 1.052 25.629-2.835 5.137-1.05 31.721-4.34 49.5-6.125 7.271-.73 30.719-1.254 59.5-1.33l47.5-.124.31-2.626c.572-4.842-.95-5.027-43.763-5.299-21.751-.138-41.572-.081-44.047.127m-123.193 18.162c-2.603 3.031-2.93 4.152-1.818 6.229 2.26 4.223 10.011 1.629 10.011-3.35 0-4.47-5.244-6.313-8.193-2.879m-425.705 5.15c-5.147.702-7.43 3.201-5.075 5.556 1.259 1.259 6.752 1.517 34.983 1.642 35.061.155 41.32.496 72.77 3.966 10.604 1.17 19.971 1.862 20.817 1.537.982-.377 1.423-1.56 1.22-3.279-.238-2.019-1.065-2.894-3.317-3.51-5.126-1.401-34.228-4.701-50.983-5.782-16.722-1.078-62.839-1.163-70.415-.13m555.898.771c-29.316 1.286-92.796 9.073-100.75 12.357-2.601 1.074-2.954 4.143-.692 6.02 1.245 1.034 2.998 1.061 8.75.135 43.665-7.029 65.326-9.351 98.964-10.609 9.612-.359 12.728-1.372 12.728-4.14 0-2.312-4.257-4.443-8.473-4.241-2.215.106-6.952.321-10.527.478m-551.789 23.219c-5.765.424-8.577 1.067-9.235 2.11-1.168 1.853-1.17 2.144-.033 3.942.767 1.212 5.527 1.404 29.735 1.2 47.35-.399 94.871 4.099 131.134 12.411 10.611 2.432 12.998 1.809 11.772-3.074-.714-2.845-2.557-3.434-21.734-6.95-23.621-4.33-39.049-6.296-70.85-9.027-9.957-.855-61.443-1.3-70.789-.612m539.289 1.713c-2.2.203-9.625.851-16.5 1.439-29.588 2.532-69.577 8.694-72.75 11.211-1.667 1.323-1.586 4.223.159 5.671 1.089.904 4.441.602 14.75-1.328 13.521-2.532 48.121-7.057 61.841-8.089 4.125-.31 9.75-.767 12.5-1.015 13.977-1.264 51.33-1.576 70.146-.587 11.63.612 21.868.835 22.75.497 2.395-.92 1.984-5.119-.646-6.59-1.698-.95-12.797-1.298-45.25-1.419-23.65-.087-44.8.007-47 .21m-199.829 7.209c-1.345 1.485-1.705 4.772-2.002 18.25-.327 14.891-.617 17.136-3.08 23.855-15.831 43.189-58.136 76.657-96.589 76.414-7.155-.046-11.052-.61-15.787-2.286-5.927-2.099-6.432-2.131-8.811-.573-5.218 3.419-.963 9.743 8.48 12.603 5.759 1.744 23.373 2.326 30.364 1.004 35.636-6.742 67.182-31.498 88.026-69.079 5.747-10.362 8.846-22.417 9.471-36.842.777-17.942-1.237-25.158-7.022-25.158-.776 0-2.149.815-3.05 1.812m81.964 11.261c-5.861 4.61-.347 10.519 6.431 6.892 3.867-2.07 1.664-8.965-2.865-8.965-.512 0-2.117.933-3.566 2.073m-428.283 4.866c-2.897 1.243-3.654 2.699-2.485 4.787.895 1.6 3.808 1.752 35.804 1.861 24.983.085 39.743.611 52.213 1.858 18.373 1.839 19.061 1.744 19.101-2.636.022-2.483-.825-2.758-13.717-4.448-13.709-1.797-87.355-2.95-90.916-1.422m515.887 4.105c-8.393.993-23.018 2.999-32.5 4.459a6510 6510 0 0 1-20.948 3.202c-4.979.735-7.366 3.353-5.772 6.331 1.346 2.515 1.365 2.514 21.481-.965 16.911-2.925 40.374-5.899 52.062-6.6 12.891-.774 14.178-1.077 14.954-3.521 1.73-5.45-3.441-5.963-29.277-2.906M1099.5 893.61c-7.501.794-8.5 1.257-8.5 3.94 0 1.382.563 2.695 1.25 2.918s18.8.622 40.25.885c43.895.54 61.325 2.027 95 8.11 7.7 1.391 15.182 2.53 16.628 2.533 3.333.005 4.883-1.861 3.835-4.621-.693-1.827-2.737-2.487-14.634-4.722-15.617-2.934-39.012-6.088-56.829-7.662-12.416-1.096-69.942-2.128-77-1.381m531 7.839c-28.659 2.515-75.264 9.284-79.49 11.546-1.105.591-2.01 1.904-2.01 2.918 0 4.121 1.952 4.23 20.109 1.119 48.59-8.323 98.821-11.551 141.816-9.112 17.459.99 20.632.951 21.853-.269 1.721-1.721.857-5.154-1.566-6.219-3.203-1.408-84.628-1.394-100.712.017m-109.439 17.49c-2.33 2.33-2.503 3.366-1.026 6.127 1.563 2.92 6.35 2.531 8.91-.723 1.841-2.341 1.926-2.907.709-4.75-1.905-2.888-6.044-3.203-8.593-.654m111.439 7.103c-20.364 1.383-69.975 7.695-78.635 10.004-3.96 1.056-5.436 3.79-3.487 6.457 1.065 1.455 2.174 1.422 12.645-.377 23.539-4.044 55.161-7.594 77.977-8.755 9.037-.459 12.985-1.057 14.25-2.158 2.155-1.875 2.184-2.636.179-4.642-1.719-1.719-4.487-1.783-22.929-.529m-538.405 20.769c-3.292 1.005-4.834 3.594-3.266 5.483 1.011 1.218 7.813 1.556 40.942 2.033 21.851.315 44.004 1.052 49.229 1.638 13.812 1.549 16.066 1.542 17.073-.05 1.18-1.863 1.153-2.226-.323-4.234-2.214-3.013-24.045-4.769-64.75-5.21-20.075-.217-37.582-.064-38.905.34M1653 954.073c-26.001 1.024-46.275 3.185-80 8.525-20.267 3.209-22.123 3.649-23.314 5.538-1.639 2.599-.086 4.864 3.336 4.864 1.697 0 9.924-1.086 18.282-2.414 49.917-7.931 94.216-10.737 137.696-8.723 19.067.883 22.718.826 23.927-.373 1.116-1.107 1.186-1.946.32-3.847-1.069-2.347-1.567-2.452-14.427-3.056-22.25-1.044-47.384-1.24-65.82-.514m-555 16.834c-6.181.564-6.516.728-6.817 3.349-.188 1.631.22 2.932 1 3.188.724.238 19.317.646 41.317.908 49.482.587 75.193 3.257 116.918 12.141 5.088 1.083 7.271 1.18 8.25.367 1.705-1.414 1.711-4.3.013-5.71-4.214-3.497-59.975-12.02-91.681-14.013-15.416-.969-59.288-1.115-69-.23m423.059 2.034c-2.465 2.465-2.608 4.368-.488 6.488 3.695 3.694 9.871.296 9.254-5.091-.272-2.376-.844-2.888-3.516-3.147-2.188-.212-3.838.338-5.25 1.75m129.636 5.03c-21.478 1.276-29.879 1.991-48.277 4.11-21.824 2.514-50.1 7.41-52.027 9.009-.818.679-1.353 2.174-1.189 3.322.419 2.933 3.365 3.043 17.904.672 50.638-8.258 96.14-11.256 140.319-9.244 23.765 1.082 26.575.791 26.575-2.753 0-2.982-2.009-3.793-11-4.44-15.415-1.11-58.251-1.51-72.305-.676m-558.616 17.95c-1.602 1.602-1.9 2.576-1.181 3.86.877 1.569 3.976 1.727 35.781 1.825 37.148.115 53.918 1.271 86.213 5.942 15.92 2.303 47.339 8.391 51.229 9.927 1.768.698 4.879-1.804 4.879-3.924 0-.718-.604-1.807-1.342-2.42-1.651-1.37-34.177-8.386-49.16-10.603-6.049-.895-11.898-1.831-12.998-2.079-8.992-2.033-38.801-3.748-72.639-4.179-38.483-.49-38.648-.483-40.782 1.651m549.421 7.206c-32.995 1.833-87.561 9.019-91.158 12.004-1.743 1.447-1.716 4.314.055 5.783 1.073.891 4.706.56 15.658-1.424 27.182-4.925 59.081-8.246 86.945-9.052 22.639-.656 23.582-.788 25.041-3.514 2.769-5.175-2.284-5.701-36.541-3.797m-540.897 14.806c-6.016.432-8.158.984-8.994 2.317-.753 1.199-.78 2.256-.085 3.358.896 1.42 5.26 1.639 37.495 1.88 20.065.149 37.606.519 38.981.821s8.288 1.077 15.362 1.722c11.138 1.017 13.062.974 14.353-.317 2.323-2.324.74-5.552-3.021-6.162-22.503-3.647-68.85-5.43-94.091-3.619m420.739 2.449c-2.49 2.142-2.649 2.648-1.577 5 .937 2.059 1.901 2.618 4.514 2.618 3.995 0 5.721-1.509 5.721-5 0-5.262-4.132-6.511-8.658-2.618m-63.592 153.49c5.303.16 5.427 1.631.482 5.696-16.349 13.439-27.265 17.759-50.303 19.908-14.635 1.365-34.388-6.821-47.633-19.741-2.862-2.791-5.001-5.404-4.753-5.805.355-.575 83.438-.621 102.207-.058"/><style>@media (prefers-color-scheme:light){:root{filter:none}}@media (prefers-color-scheme:dark){:root{filter:invert(100%)}}</style></svg>